<?xml version="1.0" standalone="no"?>
<!DOCTYPE svg PUBLIC "-//W3C//DTD SVG 20010904//EN"
 "http://www.w3.org/TR/2001/REC-SVG-20010904/DTD/svg10.dtd">
<svg version="1.0" xmlns="http://www.w3.org/2000/svg"
 width="416.000000pt" height="416.000000pt" viewBox="0 0 416.000000 416.000000"
 preserveAspectRatio="xMidYMid meet">
<metadata>
Created by potrace 1.11, written by Peter Selinger 2001-2013
</metadata>
<g transform="translate(0.000000,416.000000) scale(0.100000,-0.100000)"
fill="#000000" stroke="none">
<path d="M1190 4140 c-14 -14 -20 -33 -20 -65 l0 -45 -202 0 c-180 0 -208 -3
-246 -20 -73 -33 -99 -58 -131 -122 l-31 -61 0 -1818 0 -1817 33 -64 c27 -52
42 -69 87 -95 l54 -33 1356 0 1355 0 52 30 c39 22 61 44 83 83 l30 52 0 1845
0 1846 -32 54 c-27 45 -44 60 -96 87 l-64 33 -184 0 -184 0 0 40 c0 58 -26 80
-95 80 -69 0 -95 -22 -95 -80 l0 -40 -340 0 -340 0 0 38 c0 57 -31 82 -101 82
-69 0 -99 -26 -99 -83 l0 -37 -310 0 -310 0 0 45 c0 64 -24 85 -95 85 -42 0
-60 -5 -75 -20z m-20 -355 c0 -64 24 -85 95 -85 71 0 95 21 95 85 l0 45 310 0
310 0 0 -37 c0 -57 30 -83 99 -83 70 0 101 25 101 82 l0 38 340 0 340 0 0 -45
c0 -64 24 -85 95 -85 72 0 95 21 95 86 l0 46 160 -3 c150 -4 161 -5 182 -27
l23 -23 0 -1769 0 -1769 -23 -23 -23 -23 -1279 0 -1279 0 -23 23 -23 23 0
1768 c0 1708 1 1770 19 1789 23 27 39 29 229 31 l157 1 0 -45z"/>
<path d="M1493 2700 c-54 -26 -84 -75 -90 -148 -9 -106 32 -184 109 -211 21
-8 263 -10 768 -8 l736 2 40 26 c49 32 72 85 72 164 0 79 -23 132 -72 164
l-40 26 -740 2 c-717 2 -742 2 -783 -17z"/>
<path d="M1126 2000 c-65 -20 -95 -71 -93 -161 2 -71 19 -107 64 -136 25 -17
88 -18 963 -21 876 -2 937 -1 969 15 59 30 76 64 76 148 0 84 -17 118 -76 147
-32 17 -97 18 -954 17 -506 0 -933 -5 -949 -9z"/>
<path d="M1101 1353 c-59 -30 -76 -64 -76 -148 0 -84 17 -118 76 -148 32 -16
97 -17 974 -17 872 0 943 2 975 18 52 26 71 61 77 133 5 73 -13 119 -60 153
-28 21 -35 21 -980 24 -892 2 -954 1 -986 -15z"/>
</g>
</svg>
